<svg xmlns="http://www.w3.org/2000/svg" version="1.0" width="748.985360" height="246.466428" preserveAspectRatio="xMidYMid meet" style=""><rect id="backgroundrect" width="100%" height="100%" x="0" y="0" fill="none" stroke="none"/>
<metadata>
Created by potrace 1.12, written by Peter Selinger 2001-2015
</metadata>

<g class="currentLayer" style=""><title>Layer 1</title><g transform="translate(-142.93881225585938,688.0973510742188) scale(0.10000000149011612,-0.10000000149011612) " fill="#ffffff" stroke="none" id="svg_1" class="selected" fill-opacity="1">
<path d="M2790 6855 c-20 -21 -27 -49 -46 -188 -13 -89 -23 -169 -24 -179 0 -11 12 -18 43 -23 23 -4 49 -13 58 -19 13 -9 4 -11 -45 -11 l-61 0 -14 -93 c-15 -103 -8 -201 15 -208 45 -13 50 -17 27 -21 -36 -7 -48 -31 -47 -97 1 -63 12 -95 47 -133 25 -28 37 -29 71 -2 38 30 67 92 68 146 0 39 -4 51 -26 70 -35 30 -25 46 24 38 l37 -6 7 43 c4 24 11 97 16 163 4 66 16 177 25 247 21 160 12 221 -41 267 -45 40 -100 43 -134 6z" id="svg_2" fill="#ffffff" fill-opacity="1"/>
<path d="M2307 6819 c-45 -27 -63 -163 -31 -224 13 -24 15 -49 10 -126 -7 -106 -1 -119 49 -119 l30 -1 -27 -15 c-33 -17 -37 -28 -7 -19 21 7 21 7 -1 -23 -20 -27 -22 -38 -16 -93 4 -35 14 -76 22 -91 15 -28 16 -29 74 -22 33 4 60 3 59 -2 0 -5 -22 -26 -50 -47 -27 -20 -49 -43 -49 -50 0 -25 68 -154 85 -161 31 -12 65 -6 86 15 18 18 20 28 14 82 -11 97 -24 149 -43 164 -14 11 -15 14 -3 22 12 8 12 23 2 103 -19 140 -18 138 -56 138 -19 0 -37 5 -40 10 -3 6 -1 10 4 10 21 0 11 19 -11 23 -13 2 -2 5 25 6 l47 1 0 118 c-1 150 -18 235 -57 274 -32 32 -87 45 -116 27z" id="svg_3" fill="#ffffff" fill-opacity="1"/>
<path d="M3388 6783 c-63 -10 -130 -138 -132 -252 l-1 -64 35 -10 c49 -12 65 -31 20 -23 l-35 7 36 -20 c66 -37 67 -56 1 -21 -56 29 -66 31 -87 20 -30 -16 -60 -86 -75 -178 -12 -75 -6 -102 26 -102 15 0 44 -27 44 -41 0 -5 -18 0 -41 11 -54 28 -60 20 -10 -13 34 -22 72 -67 58 -67 -3 0 -25 11 -50 25 -24 14 -51 23 -60 19 -24 -9 -50 -83 -50 -146 0 -66 20 -104 60 -114 40 -10 73 14 105 76 23 43 28 65 26 105 -3 42 0 52 17 60 23 12 124 236 125 276 0 15 -7 40 -15 55 -22 42 -19 54 14 54 28 0 32 5 60 79 60 155 60 209 1 249 -18 12 -36 21 -39 21 -3 -1 -18 -4 -33 -6z" id="svg_4" fill="#ffffff" fill-opacity="1"/>
<path d="M4515 6563 c-334 -12 -436 -20 -453 -36 -18 -19 -25 -85 -10 -104 10 -13 188 -11 241 2 21 6 27 4 27 -9 0 -14 -15 -16 -97 -16 -110 0 -155 -14 -81 -25 25 -4 75 -5 112 -3 l67 3 -7 -60 c-3 -33 -13 -84 -20 -113 -8 -29 -14 -80 -14 -113 0 -40 -5 -65 -15 -75 -18 -19 -20 -70 -2 -78 8 -3 6 -9 -7 -20 -11 -9 -14 -16 -8 -16 7 0 12 -13 12 -30 0 -21 -5 -30 -16 -30 -16 0 -15 -19 3 -66 4 -12 3 -15 -5 -10 -19 11 -14 -37 9 -99 12 -32 26 -54 32 -52 7 2 24 -3 39 -11 15 -9 30 -13 33 -10 3 3 1 36 -5 74 -14 100 -13 134 5 134 12 0 15 -14 15 -65 0 -66 20 -135 39 -135 14 0 14 -1 -5 75 -16 61 -15 69 10 222 26 153 97 535 101 541 2 2 41 7 89 12 99 10 141 27 141 55 0 11 7 26 15 32 13 11 13 14 0 23 -14 9 -45 10 -245 3z m-223 -675 c-9 -20 -11 -18 -11 22 0 40 2 42 11 23 8 -17 8 -29 0 -45z m-2 -57 c0 -11 -4 -23 -10 -26 -6 -4 -10 5 -10 19 0 14 5 26 10 26 6 0 10 -9 10 -19z" id="svg_5" fill="#ffffff" fill-opacity="1"/>
<path d="M4774 6538 c-2 -3 -7 -47 -11 -97 -3 -50 -9 -88 -13 -86 -6 4 -27 -130 -29 -190 -2 -34 -10 -87 -26 -165 -18 -89 -18 -93 -5 -85 6 3 10 1 10 -4 0 -6 6 -11 14 -11 12 0 12 -5 3 -31 l-12 -31 -6 28 c-5 29 -5 29 -18 -11 -6 -22 -14 -61 -18 -87 -9 -75 2 -77 264 -39 290 43 283 41 283 57 0 10 -14 14 -42 15 -43 1 -43 2 11 9 60 9 76 21 86 66 5 27 3 32 -17 38 -40 10 -198 6 -333 -9 -71 -8 -131 -13 -133 -11 -2 2 1 30 6 62 8 49 10 53 11 22 0 -21 5 -38 9 -38 4 0 18 31 32 69 l23 68 76 6 c150 12 308 59 319 95 2 7 -9 15 -26 18 -19 4 -29 12 -28 22 1 19 5 19 -178 7 l-119 -7 7 63 c4 35 8 65 9 65 1 1 54 7 117 14 63 6 119 15 123 20 5 4 -42 8 -103 8 -104 1 -131 5 -119 17 3 2 68 7 144 11 153 7 174 14 195 64 12 30 12 34 -11 51 -22 18 -40 19 -257 17 -129 -2 -236 -6 -238 -10z m-45 -565 c0 -16 -3 -22 -6 -15 -2 6 -9 10 -14 6 -11 -6 -11 -2 -3 20 10 26 24 18 23 -11z" id="svg_6" fill="#ffffff" fill-opacity="1"/>
<path d="M6100 6542 c-19 -2 -38 -7 -43 -11 -13 -13 -66 -212 -94 -351 -29 -153 -39 -379 -15 -387 8 -3 12 10 13 44 1 51 4 46 14 -30 7 -55 27 -69 53 -38 9 12 26 23 38 23 19 2 22 17 47 202 30 225 45 302 57 289 11 -12 166 -382 190 -452 11 -33 20 -77 20 -98 0 -31 5 -40 25 -50 14 -6 25 -8 25 -4 0 4 18 15 39 24 33 15 40 24 46 56 3 21 15 65 25 97 l19 59 -6 -77 c-3 -53 -2 -78 5 -78 6 0 14 15 17 33 2 17 17 104 31 192 14 88 43 230 64 315 20 85 38 165 38 178 1 32 -17 27 -24 -7 -4 -20 -11 -28 -20 -24 -19 7 -18 32 1 39 8 4 15 10 15 14 0 11 -62 35 -83 32 -10 -2 -24 1 -31 7 -11 9 -17 -1 -29 -46 -23 -83 -55 -228 -83 -377 -13 -71 -26 -131 -28 -133 -1 -2 -20 37 -41 87 -20 50 -35 93 -33 95 4 4 36 -62 59 -120 10 -24 13 -26 16 -12 5 22 -15 77 -28 77 -5 0 -9 7 -9 15 0 14 -137 376 -146 385 -3 2 -13 -1 -23 -7 -15 -9 -24 -7 -52 15 -25 20 -43 26 -69 24z m-90 -274 c0 -7 -4 -19 -9 -27 -7 -10 -9 -7 -8 12 2 26 17 39 17 15z" id="svg_7" fill="#ffffff" fill-opacity="1"/>
<path d="M7085 6537 c-58 -15 -95 -34 -95 -47 0 -13 7 -13 32 1 11 6 -14 -29 -57 -77 -43 -49 -96 -116 -118 -149 -50 -76 -41 -48 13 41 22 37 39 68 37 70 -7 7 -129 -185 -147 -233 -28 -74 -18 -156 28 -243 63 -116 116 -158 229 -180 97 -19 140 -8 232 60 43 32 90 73 103 92 26 36 79 150 109 237 20 58 26 126 9 116 -5 -3 -10 -16 -10 -27 0 -45 -12 -6 -25 83 -19 123 -19 122 7 114 l21 -7 -21 35 c-12 19 -22 41 -22 50 0 9 -24 27 -57 43 -68 32 -187 42 -268 21z m210 -167 c22 -18 19 -114 -6 -188 -44 -131 -174 -288 -258 -313 -42 -13 -42 -12 -82 28 -57 57 -63 91 -29 190 37 111 80 184 119 205 18 9 52 34 77 57 43 39 47 40 104 37 33 -2 67 -9 75 -16z m22 -267 c-8 -21 -22 -39 -31 -41 -13 -3 -12 4 6 48 14 33 24 48 31 41 6 -6 4 -23 -6 -48z m-540 -85 c-2 -13 -4 -3 -4 22 0 25 2 35 4 23 2 -13 2 -33 0 -45z" id="svg_8" fill="#ffffff" fill-opacity="1"/>
<path d="M5622 6528 c-30 -8 -41 -16 -40 -27 2 -12 -3 -15 -20 -13 -23 3 -79 -25 -69 -35 3 -2 20 3 39 12 23 12 29 13 18 3 -32 -30 -136 -113 -155 -124 -87 -48 -125 -382 -59 -521 27 -57 74 -103 105 -103 25 0 24 8 -8 55 l-26 40 50 -47 c61 -56 83 -63 171 -54 71 7 84 12 64 25 -8 5 1 12 27 19 44 14 149 89 169 122 20 33 4 38 -21 8 -23 -28 -133 -98 -155 -98 -7 0 18 25 55 57 113 94 133 130 98 177 -14 19 -18 16 -87 -51 -76 -73 -141 -114 -180 -112 -20 0 -19 2 7 11 54 19 134 79 175 130 22 28 38 53 35 56 -2 3 -35 -24 -73 -60 -81 -76 -158 -118 -218 -118 l-42 0 -15 97 c-12 82 -12 105 -2 141 29 94 125 205 212 244 54 24 154 40 168 27 15 -15 52 -10 59 7 19 48 -90 126 -194 137 -25 3 -64 1 -88 -5z m-275 -665 c-3 -10 -5 -2 -5 17 0 19 2 27 5 18 2 -10 2 -26 0 -35z m311 -130 c-10 -2 -28 -2 -40 0 -13 2 -5 4 17 4 22 1 32 -1 23 -4z" id="svg_9" fill="#ffffff" fill-opacity="1"/>
<path d="M5430 6395 c-13 -14 -21 -27 -18 -30 2 -3 15 6 28 20 13 14 21 27 18 30 -2 3 -15 -6 -28 -20z" id="svg_10" fill="#ffffff" fill-opacity="1"/>
<path d="M3808 6358 c-19 -6 -41 -34 -74 -91 -26 -45 -80 -116 -119 -158 -40 -42 -76 -87 -80 -100 -4 -13 -31 -50 -60 -81 -59 -63 -115 -166 -115 -210 0 -33 31 -68 60 -68 25 0 43 18 115 114 l57 75 -21 27 c-25 31 -20 45 7 21 24 -22 50 -21 88 2 60 36 120 147 108 196 -5 20 -3 23 15 18 27 -7 27 13 1 27 -30 16 -25 31 6 20 44 -17 54 -12 81 46 53 115 19 194 -69 162z" id="svg_11" fill="#ffffff" fill-opacity="1"/>
<path d="M7440 6315 c0 -14 5 -25 10 -25 6 0 10 11 10 25 0 14 -4 25 -10 25 -5 0 -10 -11 -10 -25z" id="svg_12" fill="#ffffff" fill-opacity="1"/>
<path d="M4953 6073 c-52 -3 -83 -8 -83 -15 0 -8 23 -9 77 -4 42 3 87 6 100 6 12 0 23 5 23 10 0 6 -8 9 -17 8 -10 -1 -55 -4 -100 -5z" id="svg_13" fill="#ffffff" fill-opacity="1"/>
<path d="M2532 5789 c-138 -27 -203 -126 -153 -234 22 -48 27 -53 122 -107 173 -97 236 -126 299 -137 36 -6 79 -15 95 -20 25 -8 26 -9 8 -10 -13 -1 -23 -5 -23 -10 0 -15 31 -23 115 -31 l80 -7 -65 -1 c-43 -1 -84 6 -120 19 -106 39 -108 38 -58 -23 57 -70 103 -137 111 -163 5 -15 3 -14 -11 5 -76 110 -111 145 -182 187 l-75 43 -90 -6 c-50 -4 -111 -15 -137 -25 -60 -23 -64 -5 -5 21 30 14 65 20 125 20 45 0 82 3 82 8 -1 11 -76 62 -92 62 -8 0 -19 -5 -24 -10 -7 -7 -43 -3 -115 15 -121 29 -140 30 -179 10 -43 -22 -53 -48 -45 -115 l7 -58 -51 -56 c-48 -53 -51 -60 -51 -109 0 -33 10 -74 26 -112 14 -33 39 -97 56 -141 39 -106 73 -147 144 -173 64 -25 153 -27 193 -6 43 22 106 98 120 145 7 23 12 63 11 88 -3 71 2 83 10 27 10 -73 -4 -160 -35 -207 -15 -22 -24 -42 -21 -45 3 -3 31 -2 62 2 41 5 53 10 45 18 -6 6 -11 17 -11 24 0 19 70 -18 118 -61 81 -73 233 -76 336 -5 60 41 92 105 177 349 80 231 81 237 86 353 l5 118 -33 67 c-41 82 -96 138 -169 175 -45 22 -69 27 -129 27 -68 0 -79 3 -157 46 -83 45 -85 46 -151 38 -38 -3 -88 -13 -113 -20 -58 -18 -63 -17 -56 3 7 16 -9 34 -29 32 -5 -1 -29 -5 -53 -10z" id="svg_14" fill="#ffffff" fill-opacity="1"/>
<path d="M1494 5591 c-86 -52 -86 -126 -2 -217 33 -36 72 -61 165 -105 67 -33 123 -59 126 -59 2 0 10 19 17 43 7 23 14 38 16 32 1 -5 5 -22 8 -37 4 -18 26 -42 64 -70 31 -23 71 -58 88 -76 36 -39 58 -39 87 0 14 19 20 42 19 75 0 43 -4 52 -38 80 -20 18 -60 41 -88 52 -42 15 -52 24 -56 47 -4 23 -10 28 -27 26 -23 -3 -58 42 -94 119 -42 92 -201 141 -285 90z" id="svg_15" fill="#ffffff" fill-opacity="1"/>
<path d="M2337 5483 c-4 -3 -7 -14 -7 -24 0 -21 35 -41 100 -57 77 -18 87 -20 100 -12 11 7 -108 70 -131 70 -6 0 -20 7 -33 15 -12 8 -26 12 -29 8z" id="svg_16" fill="#ffffff" fill-opacity="1"/>
<path d="M6890 5438 c-14 -6 -39 -10 -55 -9 -30 1 -32 -1 -54 -70 -22 -68 -22 -71 -4 -86 14 -12 15 -14 2 -10 -20 7 -39 -11 -39 -35 0 -10 -4 -18 -9 -18 -14 0 -26 -83 -12 -88 14 -5 15 -42 1 -42 -5 0 -10 7 -10 15 0 42 -25 -4 -103 -193 -48 -114 -87 -212 -87 -218 0 -5 6 -16 12 -22 7 -7 11 -28 10 -46 -2 -19 1 -37 7 -41 7 -3 11 3 11 15 0 26 17 60 30 60 5 0 4 -13 -2 -31 -13 -36 -9 -40 39 -46 37 -4 39 -3 60 44 12 27 28 70 35 97 14 53 42 78 108 95 19 6 54 15 78 21 23 6 42 15 42 20 0 10 -141 6 -159 -4 -6 -4 -11 -3 -11 3 0 5 44 19 98 31 53 12 102 23 108 25 7 2 14 -10 16 -30 3 -25 0 -31 -11 -27 -11 4 -13 -1 -8 -28 4 -18 7 -36 7 -41 0 -5 5 -9 10 -9 6 0 10 7 10 16 0 8 5 12 11 9 6 -4 8 -14 5 -22 -3 -8 -2 -22 3 -31 4 -9 11 -32 15 -51 5 -28 3 -32 -10 -27 -15 6 -16 0 -10 -40 3 -26 6 -53 6 -60 0 -24 20 -15 21 9 0 12 14 -21 31 -73 27 -84 32 -92 43 -76 8 11 19 15 26 10 9 -5 11 -1 7 14 -4 12 -2 22 3 22 5 0 9 -7 9 -15 0 -8 5 -15 11 -15 12 0 10 22 -7 124 -6 31 -4 37 6 31 10 -6 11 5 7 56 -4 35 -8 118 -9 183 l-3 120 35 9 c71 18 81 47 16 47 -26 0 -48 6 -56 15 -11 13 -8 15 13 15 14 0 29 5 32 10 4 6 -9 10 -33 10 l-39 0 -33 148 c-50 222 -45 210 -85 218 -20 3 -38 10 -41 15 -7 12 -63 10 -94 -3z m54 -307 c21 -74 16 -103 -19 -119 -29 -13 -85 -16 -85 -4 0 20 74 201 80 195 4 -5 15 -37 24 -72z m-134 -50 c0 -9 -20 -37 -20 -29 0 3 -2 13 -5 21 -4 8 0 14 10 14 8 0 15 -3 15 -6z m135 -101 c-11 -5 -36 -8 -55 -8 l-35 0 30 8 c17 4 41 8 55 8 23 1 23 0 5 -8z m215 -347 c0 -32 -5 -28 -14 10 -4 19 -3 26 4 22 5 -3 10 -18 10 -32z" id="svg_17" fill="#ffffff" fill-opacity="1"/>
<path d="M8547 5439 c-11 -6 -35 -12 -54 -13 -34 -1 -37 -4 -59 -61 -27 -72 -29 -85 -9 -85 8 0 15 -5 15 -11 0 -6 -7 -8 -15 -5 -11 4 -20 -3 -28 -22 -6 -15 -15 -29 -18 -32 -13 -10 -21 -90 -10 -90 6 0 11 -9 11 -20 0 -11 -4 -20 -10 -20 -5 0 -10 7 -10 15 0 42 -24 -3 -103 -195 -48 -116 -87 -214 -87 -219 0 -5 7 -14 15 -21 9 -8 13 -21 9 -36 -3 -13 -3 -32 1 -41 6 -14 10 -9 19 21 6 22 17 41 23 43 10 4 10 -3 1 -27 -13 -38 -1 -50 47 -50 26 0 33 7 53 48 12 26 29 71 38 99 17 61 36 74 147 102 97 25 99 41 4 37 -41 -2 -80 -6 -86 -10 -6 -4 -11 -3 -11 3 0 5 44 19 98 31 53 12 105 24 115 26 14 4 17 -1 17 -31 0 -22 -4 -34 -10 -30 -11 7 -11 -16 0 -60 6 -25 8 -26 9 -7 1 13 5 20 11 17 6 -4 10 -14 9 -23 -2 -10 3 -35 9 -57 16 -52 15 -58 -4 -51 -14 5 -15 -1 -9 -46 8 -57 25 -88 26 -48 0 23 1 24 9 5 5 -11 19 -54 31 -95 19 -66 23 -72 34 -56 8 10 18 15 24 11 7 -3 11 3 12 17 1 17 3 18 6 6 7 -28 34 -23 28 5 -28 122 -30 141 -16 133 7 -5 6 268 -2 338 -1 14 7 22 33 29 71 18 81 47 16 47 -26 0 -48 6 -56 15 -11 13 -8 15 13 15 14 0 29 5 32 10 4 6 -9 10 -32 10 l-39 0 -40 177 -39 177 -37 11 c-20 5 -40 13 -44 18 -11 10 -66 8 -87 -4z m48 -308 c20 -89 17 -107 -20 -121 -31 -12 -85 -13 -85 -3 0 15 75 203 81 203 3 0 14 -36 24 -79z m-135 -50 c0 -9 -20 -37 -20 -29 0 3 -2 13 -5 21 -4 8 0 14 10 14 8 0 15 -3 15 -6z m135 -101 c-11 -5 -36 -8 -55 -8 l-35 1 35 7 c19 4 44 8 55 8 l20 1 -20 -9z" id="svg_18" fill="#ffffff" fill-opacity="1"/>
<path d="M3790 5351 c-47 -38 -89 -67 -95 -65 -18 6 -52 -31 -95 -106 -40 -72 -41 -76 -27 -105 18 -39 117 -124 117 -101 0 13 4 13 37 0 20 -9 51 -17 69 -19 55 -5 144 -51 144 -74 0 -32 -60 -92 -116 -117 -70 -31 -194 -56 -211 -43 -6 6 -21 8 -33 4 -15 -5 -20 -15 -20 -40 0 -42 56 -109 115 -136 31 -14 35 -19 18 -19 -13 0 -23 -6 -23 -14 0 -11 9 -12 48 -4 89 18 144 39 138 54 -4 10 2 14 18 14 29 0 134 77 174 128 35 44 72 115 72 137 0 8 -32 48 -71 89 -66 70 -153 126 -234 151 -18 6 -17 9 15 36 54 46 150 89 226 102 79 12 84 15 64 27 -11 7 -8 10 13 10 15 0 27 5 27 10 0 6 -12 10 -27 11 -27 0 -27 1 -5 9 58 24 -4 73 -118 93 -18 3 -14 5 15 7 33 2 28 4 -27 10 -37 5 -80 11 -95 14 -23 4 -42 -6 -113 -63z m216 -80 c-3 -5 -22 -12 -41 -15 -19 -4 -79 -34 -133 -67 -81 -50 -91 -54 -57 -24 64 58 255 145 231 106z m-208 -718 c-10 -2 -28 -2 -40 0 -13 2 -5 4 17 4 22 1 32 -1 23 -4z" id="svg_19" fill="#ffffff" fill-opacity="1"/>
<path d="M4525 5395 c-62 -16 -105 -39 -105 -55 0 -6 15 -3 33 6 27 15 23 7 -32 -51 -54 -59 -101 -117 -159 -201 -7 -11 1 8 19 41 17 33 38 68 47 78 8 9 13 20 10 23 -9 9 -136 -187 -153 -237 -25 -70 -14 -159 30 -242 68 -126 151 -177 291 -180 67 -1 76 1 126 35 112 74 152 123 209 253 35 79 54 138 57 174 3 39 1 52 -7 47 -6 -4 -11 -17 -11 -28 0 -45 -10 -8 -25 90 -8 56 -15 104 -15 106 0 2 10 2 22 -2 l22 -5 -23 36 c-12 20 -20 41 -16 47 4 6 -21 23 -58 41 -80 37 -174 46 -262 24z m194 -164 c31 -17 30 -118 -3 -206 -40 -105 -147 -245 -214 -278 -62 -32 -79 -30 -121 12 -53 53 -59 90 -31 178 40 120 94 213 125 213 7 0 37 22 68 49 54 47 60 50 105 47 27 -2 59 -9 71 -15z m-483 -202 c-9 -19 -15 -29 -16 -22 0 15 22 64 27 60 2 -2 -3 -19 -11 -38z m524 -29 c0 -26 -27 -80 -40 -80 -14 0 -13 7 6 57 18 46 34 56 34 23z m-553 -122 c-2 -13 -4 -3 -4 22 0 25 2 35 4 23 2 -13 2 -33 0 -45z" id="svg_20" fill="#ffffff" fill-opacity="1"/>
<path d="M5043 5391 c-3 -12 -9 -21 -13 -21 -4 0 -10 -51 -14 -112 -9 -148 -16 -198 -28 -198 -7 0 -8 20 -3 55 4 37 3 55 -4 55 -6 0 -11 -8 -11 -17 0 -10 -9 -115 -20 -232 -18 -191 -18 -217 -5 -238 20 -30 19 -42 -7 -63 l-23 -18 29 -31 c17 -17 40 -31 53 -31 12 0 68 18 124 39 56 22 180 59 275 81 124 30 174 46 174 56 0 9 -12 14 -37 15 l-38 1 46 13 c26 7 52 15 58 19 11 7 9 -32 -4 -100 -3 -13 3 -29 16 -40 17 -15 19 -26 14 -60 -6 -40 -5 -42 26 -53 45 -15 57 -14 64 8 3 11 17 35 30 54 21 32 24 48 29 199 6 178 23 300 62 451 27 100 26 147 -2 147 -8 0 -17 7 -20 15 -6 16 -89 21 -110 7 -6 -4 -12 -29 -13 -57 -1 -27 -11 -92 -22 -143 -11 -50 -17 -97 -14 -102 3 -6 1 -10 -5 -10 -6 0 -8 -10 -4 -25 4 -16 0 -34 -10 -50 -9 -13 -16 -44 -16 -68 0 -24 -3 -64 -6 -88 l-6 -44 -102 1 c-64 1 -132 -6 -186 -18 -46 -10 -89 -17 -95 -15 -5 2 -30 -2 -55 -9 -24 -7 -46 -11 -48 -9 -7 7 99 34 227 59 115 23 158 36 116 36 -32 0 -250 -40 -300 -55 -27 -8 -50 -13 -51 -12 -1 1 9 131 24 289 14 158 23 291 19 295 -4 4 -13 1 -19 -5 -20 -20 -37 -13 -40 16 -4 35 -46 45 -55 13z m634 -328 c-3 -10 -5 -2 -5 17 0 19 2 27 5 18 2 -10 2 -26 0 -35z m-686 -124 c-6 -66 -9 -79 -10 -43 -1 52 9 147 15 141 2 -2 0 -46 -5 -98z" id="svg_21" fill="#ffffff" fill-opacity="1"/>
<path d="M6005 5400 c-3 -5 -12 -7 -19 -4 -29 11 -81 -258 -107 -554 l-12 -143 33 -34 34 -35 -22 -23 c-12 -13 -22 -27 -22 -33 1 -5 10 2 20 15 l20 23 0 -36 c0 -26 4 -36 16 -36 9 0 18 9 21 20 6 23 16 25 32 6 26 -31 196 16 329 90 83 46 166 128 195 191 17 38 22 68 23 143 1 88 -2 100 -32 160 -38 78 -134 174 -214 216 -47 24 -67 28 -137 28 -45 1 -85 4 -89 9 -11 10 -62 9 -69 -3z m-35 -190 c-7 -44 -15 -79 -17 -76 -2 2 1 40 8 85 7 44 14 79 17 76 3 -2 -1 -41 -8 -85z m333 9 c21 -5 52 -23 69 -38 26 -23 32 -37 36 -85 5 -64 -15 -129 -55 -176 -15 -18 -20 -30 -12 -30 27 0 -9 -19 -114 -59 -59 -22 -126 -44 -148 -47 l-41 -7 7 64 c10 93 35 267 46 319 7 31 17 49 32 57 29 14 132 16 180 2z m150 -211 l-10 -53 -2 65 c-1 48 2 61 10 53 9 -9 9 -26 2 -65z m-520 1 c-6 -6 -7 3 -4 23 4 28 6 29 9 9 2 -13 0 -27 -5 -32z m567 -104 c-13 -41 -26 -73 -28 -70 -3 3 5 39 18 80 13 41 26 73 28 70 3 -3 -5 -39 -18 -80z m-80 -98 c0 -2 -15 -16 -32 -33 l-33 -29 29 33 c28 30 36 37 36 29z m-226 -117 c-6 -6 -28 -13 -50 -15 l-39 -5 40 14 c49 18 62 19 49 6z m-126 -36 c-9 -10 -21 -13 -29 -8 -9 5 -8 9 7 15 31 12 39 10 22 -7z" id="svg_22" fill="#ffffff" fill-opacity="1"/>
<path d="M7418 5365 c-49 -25 -88 -49 -88 -55 0 -5 8 -13 18 -19 16 -9 16 -10 0 -16 -10 -4 -18 -12 -18 -17 0 -6 7 -7 16 -4 9 3 28 8 42 11 l27 5 -27 -11 c-39 -15 -36 -39 3 -39 26 0 30 -3 24 -17 -13 -31 -18 -73 -8 -73 6 0 15 25 22 56 7 30 15 54 17 51 6 -5 -40 -194 -49 -204 -5 -4 -5 13 -2 37 l6 45 -15 -40 c-22 -62 -64 -271 -71 -360 -7 -78 -6 -82 19 -112 28 -33 55 -35 57 -4 0 11 3 9 9 -6 6 -16 18 -23 35 -23 22 0 25 3 19 25 -4 15 -1 32 7 42 9 10 16 53 19 118 3 67 10 108 19 119 13 15 19 8 60 -71 25 -49 63 -111 83 -138 48 -65 200 -216 220 -219 9 -1 23 -8 32 -15 12 -10 20 -10 46 5 29 18 40 47 20 59 -5 3 -15 16 -21 28 -11 21 -11 21 7 6 10 -9 26 -17 34 -17 8 0 29 -3 46 -7 27 -6 33 -4 38 13 4 11 18 36 31 55 21 33 24 48 29 199 5 171 31 351 67 475 23 75 20 123 -7 123 -8 0 -17 7 -20 15 -4 10 -20 15 -49 15 -68 0 -75 -6 -75 -61 0 -27 -9 -92 -21 -144 -11 -52 -17 -100 -14 -105 3 -6 1 -10 -5 -10 -7 0 -9 -8 -5 -20 3 -11 0 -34 -8 -52 -9 -19 -20 -99 -27 -188 -7 -85 -14 -159 -17 -163 -3 -5 5 -19 17 -32 17 -18 20 -30 15 -56 l-6 -34 -43 40 c-24 22 -77 85 -119 140 -41 55 -89 113 -106 129 -45 43 -40 57 28 87 63 28 125 97 137 152 4 15 10 27 15 27 5 0 9 7 9 15 0 8 -4 15 -10 15 -5 0 -10 -6 -10 -13 0 -7 -22 -35 -50 -62 -27 -27 -50 -46 -50 -41 0 4 21 37 46 72 45 63 46 66 42 127 -5 80 -30 117 -106 154 -48 24 -71 28 -152 30 -95 3 -95 3 -182 -42z m292 -97 c65 -33 66 -62 3 -117 -47 -42 -170 -117 -178 -109 -2 2 2 31 9 63 8 33 19 86 26 117 7 38 17 58 28 61 38 10 70 6 112 -15z m55 2 c10 -11 13 -20 7 -20 -6 0 -16 9 -22 20 -6 11 -9 20 -7 20 2 0 12 -9 22 -20z m36 -83 c-13 -13 -15 1 -4 30 7 17 8 17 11 -1 2 -10 -1 -23 -7 -29z m-47 -62 c-34 -45 -41 -45 -12 0 13 19 27 35 31 35 4 0 -4 -16 -19 -35z m273 -62 c-3 -10 -5 -2 -5 17 0 19 2 27 5 18 2 -10 2 -26 0 -35z" id="svg_23" fill="#ffffff" fill-opacity="1"/>
<path d="M4870 5175 c0 -14 5 -25 10 -25 6 0 10 11 10 25 0 14 -4 25 -10 25 -5 0 -10 -11 -10 -25z" id="svg_24" fill="#ffffff" fill-opacity="1"/>
<path d="M7000 4721 c0 -17 5 -33 10 -36 6 -4 10 8 10 29 0 20 -4 36 -10 36 -5 0 -10 -13 -10 -29z" id="svg_25" fill="#ffffff" fill-opacity="1"/>
<path d="M8650 4721 c0 -17 5 -33 10 -36 6 -4 10 8 10 29 0 20 -4 36 -10 36 -5 0 -10 -13 -10 -29z" id="svg_26" fill="#ffffff" fill-opacity="1"/>
</g></g></svg>